Exact Audio Copy V0.99 prebeta 1 from 25. May 2007

EAC 抓取日志文件从23. 十一月 2010, 23:05

朱明瑛 / 20世纪中华歌坛名人百集珍藏版

使用驱动器  ：BENQ    DVD-ROM 16X   Adapter: 0  ID: 1

读取模式     : 保护
使用精确流   : 是
废除音频缓冲 : 是
使用 C2 指针 : 否

读取偏移校正                   : 738
读取 Lead-In 和 Lead-Out       : 否
用静音填充抓取中丢失偏移的采样 : 是
去除首尾静音块                 : 否
已用接口                       : Win NT 及 2000 本地 Win32 接口

所用输出格式 : 内部 WAV 函数
样本格式     : 44.100 Hz;16 Bit;立体声


被抓轨 CD 的 TOC

     音轨 |   开始   |   长度   | 起始扇区 | 结尾扇区 
    --------------------------------------------------
       1  |  0:00.00 |  2:43.42 |       0  |   12266  
       2  |  2:43.42 |  2:16.08 |   12267  |   22474  
       3  |  4:59.50 |  4:09.57 |   22475  |   41206  
       4  |  9:09.32 |  2:36.65 |   41207  |   52971  
       5  | 11:46.22 |  3:33.33 |   52972  |   68979  
       6  | 15:19.55 |  2:27.50 |   68980  |   80054  
       7  | 17:47.30 |  3:07.10 |   80055  |   94089  
       8  | 20:54.40 |  5:09.65 |   94090  |  117329  
       9  | 26:04.30 |  3:25.27 |  117330  |  132731  
      10  | 29:29.57 |  1:15.00 |  132732  |  138356  
      11  | 30:44.57 |  4:01.68 |  138357  |  156499  
      12  | 34:46.50 |  3:23.10 |  156500  |  171734  
      13  | 38:09.60 |  2:06.05 |  171735  |  181189  
      14  | 40:15.65 |  3:24.20 |  181190  |  196509  
      15  | 43:40.10 |  2:17.72 |  196510  |  206856  
      16  | 45:58.07 |  2:53.38 |  206857  |  219869  


范围状态及错误

已选择范围

     文件名 E:\文件夹\20世纪中华歌坛名人百集珍藏版-朱明瑛[lwg188原创]\朱明瑛 - 20世纪中华歌坛名人百集珍藏版.wav

     峰值电平 95.6 %
     范围质量 100.0 %
     复制 CRC AC97AEBD
     复制成功

没有错误发生

状态报告结尾
